<svg id="Layer_1" data-name="Layer 1" xmlns="http://www.w3.org/2000/svg" viewBox="0 0 116.6 32.42"><defs><style>.cls-1{fill:#fff;}</style></defs><path class="cls-1" d="M12.35,30.07a2.72,2.72,0,0,0,0-3.84L1.7,15.58V5.13L30.27,33.71H1.7V23.27l6.81,6.8a2.7,2.7,0,0,0,3.84,0Z" transform="translate(-1.7 -1.29)"/><path class="cls-1" d="M23.46,4.93a2.72,2.72,0,0,0,0,3.84L34.12,19.42V29.87L5.54,1.29H34.12V11.73l-6.81-6.8a2.72,2.72,0,0,0-3.85,0Z" transform="translate(-1.7 -1.29)"/><path class="cls-1" d="M45.66,24.17a6.27,6.27,0,0,1-2.52-.46,3.81,3.81,0,0,1-1.67-1.32,3.73,3.73,0,0,1-.67-2h2a2,2,0,0,0,.46,1.16,2.29,2.29,0,0,0,1,.69,4.06,4.06,0,0,0,1.37.22,4,4,0,0,0,1.47-.25,2.47,2.47,0,0,0,1-.73,1.74,1.74,0,0,0,.37-1.1,1.36,1.36,0,0,0-.32-.93,2.53,2.53,0,0,0-.88-.6A8.45,8.45,0,0,0,46,18.4L44.53,18a5.63,5.63,0,0,1-2.48-1.26,2.81,2.81,0,0,1-.89-2.16,3.28,3.28,0,0,1,.6-2,4,4,0,0,1,1.64-1.31,5.73,5.73,0,0,1,2.35-.46,5.59,5.59,0,0,1,2.34.46,4,4,0,0,1,1.59,1.28,3.12,3.12,0,0,1,.6,1.84H48.35A1.77,1.77,0,0,0,47.53,13a3.16,3.16,0,0,0-1.83-.49,3.55,3.55,0,0,0-1.36.24,2.06,2.06,0,0,0-.89.68,1.59,1.59,0,0,0-.32,1,1.35,1.35,0,0,0,.38,1,2.82,2.82,0,0,0,.92.6,8.49,8.49,0,0,0,1,.35l1.26.33a12.54,12.54,0,0,1,1.27.42,5.64,5.64,0,0,1,1.22.69,3.34,3.34,0,0,1,.9,1,3.19,3.19,0,0,1,.34,1.5,3.47,3.47,0,0,1-.57,2,3.76,3.76,0,0,1-1.64,1.35A6.14,6.14,0,0,1,45.66,24.17Z" transform="translate(-1.7 -1.29)"/><path class="cls-1" d="M52.81,24V11h2v5.48h6.41V11h2V24h-2V18.18H54.8V24Z" transform="translate(-1.7 -1.29)"/><path class="cls-1" d="M71.47,24.13a5.7,5.7,0,0,1-3-.8,5.5,5.5,0,0,1-2.09-2.28,7.73,7.73,0,0,1-.76-3.56,7.71,7.71,0,0,1,.76-3.57,5.47,5.47,0,0,1,2.09-2.29,6,6,0,0,1,6,0,5.49,5.49,0,0,1,2.07,2.29,7.71,7.71,0,0,1,.76,3.57,7.73,7.73,0,0,1-.76,3.56,5.53,5.53,0,0,1-2.07,2.28A5.7,5.7,0,0,1,71.47,24.13Zm0-1.81a3.6,3.6,0,0,0,2-.55,3.76,3.76,0,0,0,1.38-1.64,6.15,6.15,0,0,0,.51-2.64,6.23,6.23,0,0,0-.51-2.67,3.79,3.79,0,0,0-1.38-1.63,3.6,3.6,0,0,0-2-.55,3.66,3.66,0,0,0-2,.55,3.77,3.77,0,0,0-1.39,1.64,6.22,6.22,0,0,0-.5,2.66,6.16,6.16,0,0,0,.5,2.64,3.74,3.74,0,0,0,1.39,1.63A3.58,3.58,0,0,0,71.47,22.32Z" transform="translate(-1.7 -1.29)"/><path class="cls-1" d="M79.72,24V11h2v5.48h6.42V11h2V24h-2V18.18H81.7V24Z" transform="translate(-1.7 -1.29)"/><path class="cls-1" d="M92,24,96.59,11H99l4.69,13h-2.14l-2.53-7.2c-.19-.59-.41-1.28-.64-2.07s-.51-1.75-.82-2.86H98c-.29,1.12-.56,2.09-.79,2.89s-.44,1.48-.62,2L94.13,24Zm2.49-3.41V18.89h6.74v1.65Z" transform="translate(-1.7 -1.29)"/><path class="cls-1" d="M107.58,11V24h-2V11Z" transform="translate(-1.7 -1.29)"/><path class="cls-1" d="M110.45,24V11h2V22.25h5.87V24Z" transform="translate(-1.7 -1.29)"/></svg>